<svg width="1600" height="1200" viewBox="0 0 1600 1200" fill="none" xmlns="http://www.w3.org/2000/svg">
<path d="M164.7 975.9C340.9 975.9 517 975.9 693.2 975.9C868.5 975.9 1043.8 975.9 1219 975.9C1317.9 975.9 1416.7 975.9 1515.6 975.9C1517.5 975.9 1517.5 972.9 1515.6 972.9C1339.4 972.9 1163.3 972.9 987.1 972.9C811.8 972.9 636.5 972.9 461.3 972.9C362.4 972.9 263.6 972.9 164.7 972.9C162.8 972.9 162.8 975.9 164.7 975.9Z" fill="#111111"/>
<path d="M537.6 971.7C527.4 967 518.7 959.5 512.9 949.8C510.2 945.3 507.9 940.2 506.7 935.1C505.6 930 507.6 924.8 513.6 925.6C517.5 926.1 520.6 928.7 523.4 931.1C524 930.3 524.6 929.5 525.2 928.7C518.7 924.5 513.6 918.7 510.5 911.6C508.4 906.7 503.5 891.2 511.9 889.7C512.9 889.5 513.2 888.3 512.8 887.5C504.8 871 502.9 852.6 501.2 834.6C500.4 826 499.6 815.6 506.3 809C514.2 801 525.1 806.6 531.7 813.4C544 826.1 550.4 844.2 556.9 860.3C563.7 877.2 569.6 894.4 573.9 912C578.8 932.4 581.4 953.3 580.3 974.2C580.2 976.1 583.2 976.1 583.3 974.2C585.5 931.4 572.6 889.9 556.3 850.9C549.6 834.9 542 814.3 526.2 805.1C520.1 801.6 512.7 800.6 506.7 804.8C500.6 809.1 498.3 816.7 497.9 823.8C497.4 834.7 499.3 846.2 501 856.9C502.7 868 505.5 878.9 510.4 889C510.7 888.3 511 887.5 511.3 886.8C502.5 888.4 504.3 901.1 506 907.2C508.7 917.2 515.2 925.7 523.9 931.3C525.3 932.2 527 930 525.7 928.9C520.9 924.9 514.8 920.4 508.3 923.3C501.4 926.4 503.3 934.4 505.3 940.1C510.5 955.2 521.9 967.6 536.3 974.2C537.8 975.1 539.4 972.5 537.6 971.7Z" fill="#111111"/>
<path d="M569.501 884.7C566.301 860.8 567.301 837.4 574.801 814.4C578.401 803.3 582.201 792.3 585.901 781.3C588.901 772.4 594.201 755.9 606.901 763.6C616.001 769.1 617.701 783.7 619.801 793.2C622.401 804.8 624.201 816.5 625.301 828.4C627.401 850.8 627.101 873.5 624.701 895.9C621.901 922.3 616.401 948.4 608.901 973.8C608.401 975.7 611.201 976.4 611.801 974.6C626.301 925.3 633.601 873.2 627.601 822C626.201 809.6 624.001 797.3 621.001 785.3C618.701 776.3 616.301 765 607.201 760.4C599.701 756.7 592.501 760.3 588.501 767.1C586.201 771 584.901 775.5 583.401 779.7C581.201 786.3 579.001 792.8 576.801 799.4C572.401 812.6 567.701 825.6 565.901 839.5C564.001 854.5 564.601 869.7 566.601 884.7C566.701 886.6 569.701 886.6 569.501 884.7Z" fill="#111111"/>
<path d="M509.4 807.1C538.2 858.4 560.9 914.2 566.1 973.4C566.3 975.3 569.3 975.3 569.1 973.4C563.8 913.7 541.1 857.5 512 805.6C511.1 803.9 508.5 805.4 509.4 807.1Z" fill="#111111"/>
<path d="M601.2 762.2C603.6 779.7 602.7 797.4 602 815C601.3 832.3 600.6 849.6 599.9 867C598.5 902.2 597.6 937.7 591.1 972.4C590.8 974.3 593.6 975.1 594 973.2C600.5 938.2 601.5 902.5 602.9 867C603.6 849 604.4 831 605.1 813.1C605.8 795.9 606.5 778.6 604.1 761.5C603.9 759.5 601 760.4 601.2 762.2Z" fill="#111111"/>
<path d="M572.5 812.7C585.2 829.8 594.3 849.2 599.1 869.9C599.5 871.8 602.4 871 602 869.1C597.1 848.1 588 828.4 575.1 811.1C574 809.6 571.4 811.1 572.5 812.7Z" fill="#111111"/>
<path d="M620.2 791.9C612.1 806.6 605.7 822.1 601 838.3C600.5 840.2 603.4 841 603.9 839.1C608.5 823.2 614.9 807.9 622.8 793.4C623.7 791.8 621.1 790.2 620.2 791.9Z" fill="#111111"/>
<path d="M511.6 889.4C532.7 898 550.2 913.7 561.3 933.6C562.2 935.3 564.8 933.8 563.9 932.1C552.4 911.5 534.2 895.5 512.4 886.6C510.6 885.7 509.9 888.6 511.6 889.4Z" fill="#111111"/>
<path d="M539.8 821.9C538 839 538.801 856.1 542.001 873C542.401 874.9 545.301 874.1 544.901 872.2C541.801 855.6 541.1 838.7 542.8 821.9C543 820 540 820 539.8 821.9Z" fill="#111111"/>
<path d="M183.1 972.3C180.8 965.6 179.1 958.6 178.3 951.5C178 948.5 177.8 945.5 177.8 942.4C177.8 940.8 177.5 938.5 177.9 937C177.9 936.4 178 935.8 178 935.2C179.9 933.8 181.5 934 182.8 935.7C183.7 936.5 185.5 936 185.4 934.6C185.1 930.5 185.1 926.4 185.6 922.3C185.9 920.3 186.2 918.3 186.7 916.4C186.9 915.7 189.3 908.9 189.5 909.2C190.2 910.2 191.9 910.2 192.2 908.8C196.5 891.1 204.2 874.6 213.6 859.1C216 855.1 218.6 851.1 221.2 847.2C224.1 842.9 228.9 836.1 233.3 843.6C237.8 851.2 239.1 862.3 239.5 871C240.5 889.4 236.3 907.7 230.4 925C224.7 941.9 217.6 958.8 205.4 972.1C204.1 973.5 206.2 975.6 207.5 974.2C218.1 962.7 224.8 948.6 230.3 934.1C236.1 918.6 240.8 902.5 242.2 886C242.9 878 242.8 869.9 241.6 861.9C240.6 855 239.1 846.2 234.8 840.4C225.9 828.6 215.6 850.1 211.9 856.1C201.9 872.3 193.8 889.5 189.3 908C190.2 907.9 191.1 907.8 192 907.6C189.5 904.3 186.4 907.6 185.3 910.4C182.2 917.9 181.6 926.6 182.3 934.5C183.2 934.1 184 933.8 184.9 933.4C183 931.7 179.9 929.5 177.2 930.8C174.4 932.2 174.8 936 174.8 938.6C174.5 950.3 176.4 961.8 180.2 972.9C180.8 974.9 183.7 974.1 183.1 972.3Z" fill="#111111"/>
<path d="M229.3 840.2C225.9 863.8 220.2 887 212.1 909.4C204.6 930.4 192 950.7 189.2 973.1C189 975 192 975 192.2 973.1C193.7 961.2 198.3 950.2 203.1 939.4C207.6 929.2 211.9 918.9 215.6 908.4C223.3 886.5 228.8 863.9 232.1 840.9C232.4 839.1 229.5 838.3 229.3 840.2Z" fill="#111111"/>
<path d="M201.7 875.9C202.8 891.8 204.4 907.6 206.5 923.4C206.8 925.3 209.6 924.5 209.4 922.6C207.3 907.1 205.7 891.5 204.7 875.9C204.6 874 201.6 873.9 201.7 875.9Z" fill="#111111"/>
<path d="M220.4 893.8C228.4 885.9 235.3 877 241.1 867.4C242.1 865.7 239.5 864.2 238.5 865.9C232.8 875.3 226.1 883.9 218.3 891.7C216.9 893 219 895.1 220.4 893.8Z" fill="#111111"/>
<path d="M172 970.8C165.1 960.9 159.3 950.3 154.9 939C152.9 933.9 151.2 928.6 149.8 923.3C149.1 920.5 148.4 917.7 147.8 914.8C147.4 913.1 144.8 902 148.4 902.7C149.6 902.9 150.5 902 150.2 900.9C147.7 887.1 146.1 873.2 145.6 859.2C145.4 852.8 145.3 846.2 146.7 840C147.4 837 148.4 833.5 150.4 831C155 825.4 159.8 830 162.8 834.2C177.2 854.4 186.4 878.7 190.8 903C191.1 904.9 194 904.1 193.7 902.2C190.9 887.1 186.3 872.5 180 858.6C176.7 851.4 173 844.5 168.8 837.9C166 833.5 162.4 826.6 156.7 825.4C144.2 822.8 142.6 844.6 142.5 852.3C142.3 868.9 144.3 885.6 147.3 901.9C147.9 901.3 148.5 900.7 149.1 900.1C137.1 898 147 925.5 148.5 930.2C153.2 945.3 160.3 959.6 169.3 972.6C170.5 973.9 173.1 972.4 172 970.8Z" fill="#111111"/>
<path d="M152.3 828.5C163.5 863.2 173 898.5 180.8 934.1C181.2 936 184.1 935.2 183.7 933.3C175.9 897.7 166.4 862.4 155.2 827.7C154.6 825.9 151.7 826.7 152.3 828.5Z" fill="#111111"/>
<path d="M145 874.9C156.9 880 166.6 888.7 172.8 900C173.7 901.7 176.3 900.2 175.4 898.5C168.9 886.7 158.9 877.6 146.5 872.3C144.7 871.6 143.2 874.2 145 874.9Z" fill="#111111"/>
<path d="M172.9 849.4C170.3 859.3 168.7 869.3 168.1 879.5C168 881.4 171 881.4 171.1 879.5C171.6 869.6 173.2 859.8 175.8 850.2C176.3 848.3 173.4 847.5 172.9 849.4Z" fill="#111111"/>
<path d="M1383.1 974.4C1375.2 955.2 1372.9 934.3 1376.9 913.9C1376.4 914.3 1375.9 914.6 1375.5 915C1377.8 914.6 1379.5 915.6 1380.7 918.1C1381.2 919.5 1383.8 919.5 1383.6 917.7C1382.7 908.9 1382.7 900 1383.8 891.2C1384.4 886.8 1385.2 882.5 1386.3 878.2C1386.8 876.2 1387.4 874.2 1388 872.2C1388.4 871.1 1388.7 869.9 1389.1 868.8C1389.8 867.2 1390.2 865.5 1390.2 863.7C1391 864.2 1391.9 864.7 1392.7 865.2C1396.1 846.9 1405 830.4 1418.2 817.4C1417.5 817.4 1416.8 817.4 1416.1 817.4C1420.7 822.3 1420.9 829.3 1421.6 835.6C1422.3 842.2 1422.8 848.8 1423.1 855.4C1423.8 868.3 1423.8 881.3 1423.1 894.2C1421.8 920.9 1417.7 947.3 1410.9 973.1C1410.4 975 1413.3 975.8 1413.8 973.9C1420.9 946.6 1425.1 918.6 1426.2 890.4C1426.8 876.2 1426.5 862 1425.5 847.9C1424.8 837.8 1425.6 823.3 1418.1 815.3C1417.5 814.7 1416.5 814.7 1416 815.3C1402.4 828.6 1393.2 845.7 1389.7 864.4C1389.4 865.8 1391.1 867 1392.2 865.9C1392.4 865.7 1392.5 865.6 1392.7 865.4C1393.1 865 1393.3 864.5 1393.1 863.9C1392.3 861.6 1390.2 860.9 1388.4 862.8C1387.1 864.1 1386.6 866.4 1386 868.1C1384.8 871.5 1383.8 874.9 1382.9 878.4C1379.7 891.3 1378.9 904.6 1380.3 917.8C1381.3 917.7 1382.3 917.5 1383.2 917.4C1381.8 913.9 1379 911.8 1375.1 912.1C1374.5 912.1 1373.8 912.5 1373.7 913.2C1369.7 934.1 1371.8 955.6 1379.9 975.3C1381 976.9 1383.9 976.2 1383.1 974.4Z" fill="#111111"/>
<path d="M1427.7 893.7C1430.3 875.9 1437.4 858.9 1448.6 844.7C1451.3 841.3 1454.1 838.2 1457.2 835.2C1459.2 833.3 1463.7 827.9 1466.8 832.4C1468 834.1 1467.9 836.9 1467.9 838.9C1467.8 848.6 1466.5 858.5 1465 868.2C1459.3 905.7 1445.9 941.8 1425.8 974C1424.8 975.6 1427.4 977.2 1428.4 975.5C1446.7 946 1459.5 913.4 1466.1 879.3C1467.7 871.1 1468.9 862.9 1469.7 854.6C1470.4 847.9 1472.5 838.8 1470 832.3C1464.7 818.3 1449 839.3 1445.2 844.2C1434.3 858.4 1427.3 875.2 1424.8 892.9C1424.6 894.8 1427.5 895.6 1427.7 893.7Z" fill="#111111"/>
<path d="M1426 886.2C1424.8 903.1 1422.5 919.8 1419.1 936.4C1418.7 938.3 1421.6 939.1 1422 937.2C1425.5 920.4 1427.8 903.4 1429 886.2C1429.1 884.3 1426.1 884.3 1426 886.2Z" fill="#111111"/>
<path d="M1464.6 829.8C1447.6 877.5 1431.2 925.3 1415.3 973.4C1414.7 975.2 1417.6 976 1418.2 974.2C1434 926.1 1450.4 878.3 1467.5 830.6C1468.1 828.8 1465.2 828 1464.6 829.8Z" fill="#111111"/>
<path d="M1415.6 818.6C1407.8 870.6 1399.9 922.5 1392.1 974.5C1391.8 976.4 1394.7 977.2 1395 975.3C1402.8 923.3 1410.7 871.4 1418.5 819.4C1418.8 817.5 1415.9 816.6 1415.6 818.6Z" fill="#111111"/>
<path d="M1389.4 863.1C1392.7 883.3 1396 903.4 1399.3 923.6C1399.6 925.5 1402.5 924.7 1402.2 922.8C1398.9 902.6 1395.6 882.5 1392.3 862.3C1392 860.4 1389.1 861.2 1389.4 863.1Z" fill="#111111"/>
<path d="M1423.1 847.7C1416.4 859.1 1410.7 871 1406 883.4C1405.3 885.2 1408.2 886 1408.9 884.2C1413.5 872.1 1419.1 860.4 1425.7 849.3C1426.7 847.5 1424.1 846 1423.1 847.7Z" fill="#111111"/>
<path d="M1435.7 859.5C1435.7 876.7 1435.7 894 1435.7 911.2C1435.7 913.1 1438.7 913.1 1438.7 911.2C1438.7 894 1438.7 876.7 1438.7 859.5C1438.7 857.6 1435.7 857.6 1435.7 859.5Z" fill="#111111"/>
<path d="M499.3 1014.3C505.9 1010.1 513.8 1008.8 521.3 1011.1C527.8 1013.1 533.2 1015.8 540.2 1015.5C546.7 1015.2 553 1013.5 559.5 1013.1C563 1012.9 566.5 1013 569.9 1014.2C573.3 1015.4 575.7 1017.2 579.3 1017.4C581.2 1017.5 581.2 1014.5 579.3 1014.4C575.2 1014.2 571.7 1011.3 567.7 1010.5C564.5 1009.9 561.2 1009.9 557.9 1010.2C550.9 1010.9 544 1012.9 537 1012.5C529.7 1012.1 523.5 1007.7 516.3 1007C509.7 1006.4 503.3 1008.2 497.8 1011.7C496.2 1012.7 497.7 1015.3 499.3 1014.3Z" fill="#111111"/>
<path d="M753.501 1005.8C763.501 1005.5 773.501 1005.1 783.401 1004.8C788.301 1004.6 793.401 1004.1 798.301 1004.5C802.401 1004.8 805.501 1007.1 809.301 1008C812.401 1008.7 815.401 1008.2 818.501 1007.5C823.801 1006.3 829.001 1005.2 834.501 1005C844.001 1004.5 853.501 1005.6 862.901 1006.7C864.801 1006.9 864.801 1003.9 862.901 1003.7C853.501 1002.6 844.001 1001.5 834.501 1002C830.001 1002.2 825.501 1002.8 821.101 1003.8C815.801 1005 811.701 1005.9 806.601 1003.6C799.201 1000.4 791.401 1001.5 783.601 1001.8C773.601 1002.1 763.601 1002.5 753.701 1002.8C751.601 1002.9 751.601 1005.9 753.501 1005.8Z" fill="#111111"/>
<path d="M1112.9 1106.5C1123 1108 1132.9 1106.1 1142.8 1104.2C1148.9 1103 1155 1101.8 1161.3 1101.6C1167.5 1101.4 1173.3 1102.8 1179.3 1104.2C1184.5 1105.4 1189.5 1105.9 1194.8 1105.3C1200.1 1104.6 1205.2 1103.2 1210.5 1102.6C1222 1101.2 1232.8 1106.8 1244.3 1106.1C1246.2 1106 1246.2 1103 1244.3 1103.1C1233.6 1103.7 1223.6 1098.7 1212.9 1099.3C1207.8 1099.6 1202.9 1100.9 1197.8 1101.8C1191 1103 1185 1102.5 1178.3 1100.9C1168.3 1098.4 1159 1098.2 1148.8 1100C1137.1 1102 1125.5 1105.3 1113.6 1103.6C1111.8 1103.3 1111 1106.2 1112.9 1106.5Z" fill="#111111"/>
<path d="M1390.1 1009.4C1410.1 1002.7 1431.8 1009 1452.4 1006.2C1458.2 1005.4 1464.1 1004.4 1470 1004.9C1474.9 1005.3 1479.5 1007.2 1484.3 1007.7C1489.3 1008.1 1494.2 1006.7 1499.1 1006.2C1505.2 1005.6 1511.2 1006 1517.2 1007.1C1519.1 1007.5 1519.9 1004.6 1518 1004.2C1513 1003.3 1507.9 1002.8 1502.8 1002.9C1497.4 1003.1 1492.2 1004.6 1486.8 1004.7C1481.7 1004.8 1476.9 1002.6 1471.8 1002C1466.3 1001.3 1460.8 1002 1455.3 1002.7C1443.6 1004.3 1432.4 1004.2 1420.7 1003.6C1410 1003.1 1399.4 1003 1389.2 1006.5C1387.5 1007.1 1388.2 1010 1390.1 1009.4Z" fill="#111111"/>
<path d="M563 1086.7C645.5 1086.7 728.1 1086.7 810.6 1086.7C812.5 1086.7 812.5 1083.7 810.6 1083.7C728.1 1083.7 645.5 1083.7 563 1083.7C561.1 1083.7 561.1 1086.7 563 1086.7Z" fill="black"/>
<path d="M793.3 1103C835.7 1103 878 1103 920.4 1103C922.3 1103 922.3 1100 920.4 1100C878 1100 835.7 1100 793.3 1100C791.3 1100 791.3 1103 793.3 1103Z" fill="black"/>
<path d="M1115.8 1055.2C1160.3 1055.2 1204.9 1055.2 1249.4 1055.2C1251.3 1055.2 1251.3 1052.2 1249.4 1052.2C1204.9 1052.2 1160.3 1052.2 1115.8 1052.2C1113.9 1052.2 1113.9 1055.2 1115.8 1055.2Z" fill="black"/>
<path d="M1300.4 1059.6C1326.8 1059.6 1353.3 1059.6 1379.7 1059.6C1381.6 1059.6 1381.6 1056.6 1379.7 1056.6C1353.3 1056.6 1326.8 1056.6 1300.4 1056.6C1298.5 1056.6 1298.5 1059.6 1300.4 1059.6Z" fill="black"/>
<path d="M213.3 1029.2C260.4 1029.2 307.4 1029.2 354.5 1029.2C356.4 1029.2 356.4 1026.2 354.5 1026.2C307.4 1026.2 260.4 1026.2 213.3 1026.2C211.4 1026.2 211.4 1029.2 213.3 1029.2Z" fill="black"/>
<path d="M348 1018.3C374.1 1018.3 400.1 1018.3 426.2 1018.3C428.1 1018.3 428.1 1015.3 426.2 1015.3C400.1 1015.3 374.1 1015.3 348 1015.3C346.1 1015.3 346.1 1018.3 348 1018.3Z" fill="black"/>
<path d="M796.7 1042.7C830.9 1042.7 865 1042.7 899.2 1042.7C901.1 1042.7 901.1 1039.7 899.2 1039.7C865 1039.7 830.9 1039.7 796.7 1039.7C794.7 1039.7 794.7 1042.7 796.7 1042.7Z" fill="black"/>
<path d="M1237.5 524.4C1237.9 516.7 1252.5 524.4 1256.6 523.7C1262 522.8 1263.2 516.8 1269.4 518.1C1273.2 518.9 1276.8 520.7 1280.8 520.3C1283.4 520 1285.3 518.5 1287.8 517.8C1291.7 516.7 1295.6 517.9 1298.5 520.7C1299.9 522 1302 519.9 1300.6 518.6C1296.2 514.4 1290.7 513.5 1285.1 515.6C1280.4 517.4 1277.6 517.2 1272.9 515.8C1270.6 515.1 1268.2 514.4 1265.8 514.7C1263 515.1 1261.9 516.5 1260 518.2C1254.3 523.1 1250.2 518.6 1244.2 517.7C1239.6 517 1234.9 519.3 1234.6 524.4C1234.4 526.4 1237.4 526.4 1237.5 524.4Z" fill="#1E1E1E"/>
<path d="M1254.6 509.2C1255.4 502.6 1267 508.2 1270.4 508.5C1275 508.9 1276.1 506.3 1279.4 503.9C1285.5 499.4 1289.9 505.1 1296 504.8C1297.7 504.7 1298.6 503.7 1300 502.9C1303.9 500.7 1307.7 500.2 1311.2 503.5C1312.6 504.8 1314.7 502.7 1313.3 501.4C1309.2 497.6 1304.3 497.3 1299.4 499.5C1297.2 500.5 1298.5 501.6 1294.7 501.6C1292.8 501.6 1290.4 500.1 1288.5 499.6C1285.8 498.9 1283 498.5 1280.3 499.6C1275.9 501.4 1275.7 505.8 1269.5 505.3C1266.4 505.1 1263.7 503.2 1260.5 503C1256.2 502.7 1252 504.5 1251.4 509.1C1251.3 511.1 1254.3 511.1 1254.6 509.2Z" fill="#1E1E1E"/>
<path d="M305.8 870.9C309.9 867.9 313.4 866.5 318.2 868.8C320.1 869.7 321.9 870.7 324 871.1C328.4 871.8 332.4 869.6 336.3 867.9C339.9 866.3 342.9 865.4 346.7 867.4C348.8 868.5 350.5 870 352.9 870.4C357.7 871.3 364.8 866.7 368.6 870.4C370 871.7 372.1 869.6 370.7 868.3C367 864.7 362.5 866.4 357.9 867.2C354.8 867.7 352.8 867.6 350 866C348.7 865.2 347.5 864.2 346 863.7C344 863 342 862.9 339.9 863.3C337.2 863.9 334.7 865.3 332.1 866.4C327.4 868.4 324.3 868.3 319.5 866.2C313.4 863.4 309.5 864.3 304 868.3C302.8 869.4 304.3 872 305.8 870.9Z" fill="#1E1E1E"/>
<path d="M334.7 855.4C341.5 847.8 353.1 856.6 361.5 854.8C364.6 854.1 366.6 853.1 369.8 854.2C371.7 854.9 373.3 856.2 375.2 856.9C378.9 858.2 382.4 857.6 385.8 856C387.5 855.2 386 852.6 384.3 853.4C377.3 856.8 374.2 851.5 368.1 850.5C366.2 850.2 364.7 850.7 362.9 851.3C359.5 852.3 356.9 852.4 353.3 851.6C346.3 850.1 338.1 847.1 332.4 853.4C331.3 854.7 333.4 856.8 334.7 855.4Z" fill="#1E1E1E"/>
<path d="M550.1 444.8C542.3 438.9 547.5 425.7 557.5 427.9C561.6 428.8 565.1 432.1 565.1 436.5C565.1 441.7 560.7 446.3 555.6 446.6C553.7 446.7 553.7 449.7 555.6 449.6C562 449.3 567.4 444.2 568.1 437.8C568.7 431.6 564.2 426.4 558.3 425.1C544.8 422 538.3 439.7 548.6 447.5C550.1 448.6 551.6 446 550.1 444.8Z" fill="#1E1E1E"/>
<path d="M247.3 765.1C242.3 759.6 247 749.8 254.7 751.9C264 754.4 261.6 767.5 252.3 767.4C250.4 767.4 250.4 770.4 252.3 770.4C257.9 770.4 263 766.2 263.8 760.6C264.6 755.4 261.1 750.9 256.3 749.2C245.4 745.4 237.8 759.1 245.2 767.2C246.5 768.6 248.6 766.5 247.3 765.1Z" fill="#111111"/>
<path d="M763 733.8C759.3 736.5 756.5 740.1 755.3 744.5C753.9 749.7 757.5 757 754 760.9C751.8 763.4 748 765.1 747 768.5C746.6 769.7 746.7 770.8 747.1 772C747.6 773.7 748.3 774 748.3 775.8C748.3 778.8 745.7 780.1 743.2 781.4C741.5 782.3 743 784.9 744.7 784C747.9 782.3 752 779.5 751.7 775.4C751.5 772.8 749 771.2 750.4 768.4C751.3 766.7 753.6 765.4 754.9 764.1C757.4 761.8 759.1 759.4 758.7 755.9C758.2 752.1 757.1 749.2 758.1 745.3C759.1 741.6 761.3 738.6 764.4 736.4C766 735.3 764.5 732.7 763 733.8Z" fill="#111111"/>
<path d="M777.7 743.8C769.2 743 768.2 753.5 768.6 759.6C768.8 763 769 766.4 766.9 769.2C765.8 770.6 764.2 771.7 763.5 773.4C762.9 774.9 763.3 776.1 763.6 777.7C764.5 782.6 761.8 785.8 758.5 789C757.1 790.4 759.2 792.5 760.6 791.1C763.2 788.5 766.2 785.5 766.9 781.7C767.2 779.9 766.5 778.5 766.5 776.8C766.5 773.7 768.4 772.6 769.8 770.4C772 767.2 771.9 763.3 771.6 759.6C771.3 755.3 771 746.2 777.7 746.8C779.7 747 779.6 744 777.7 743.8Z" fill="#111111"/>
<path d="M786.8 374C787.2 367.1 798.8 369.7 803.1 367.4C806.2 365.7 808 362.6 809.7 359.7C810.7 358 811.6 356.1 812.9 354.6C815.5 351.6 818.5 352 822.1 351.7C826.8 351.3 830.6 349 833.5 345.3C834.7 343.8 832.6 341.7 831.4 343.2C828.6 346.8 825.1 348.5 820.6 348.8C818.4 348.9 816.3 348.8 814.2 349.8C810.4 351.7 808.6 355.8 806.6 359.3C805 362 803.5 364.2 800.5 365.3C797.6 366.4 794.3 365.8 791.3 366.5C787.3 367.4 784.2 369.9 783.9 374.1C783.7 375.9 786.7 375.9 786.8 374Z" fill="#111111"/>
<path d="M795.6 386.5C798.6 381.6 804.7 380.4 809.5 378C813.8 375.9 816 373.2 817.3 368.6C819.2 361.5 824.7 362.4 830.8 361.5C834.5 360.9 837.5 359.7 839 356C839.7 354.2 836.8 353.4 836.1 355.2C834.2 359.7 826.7 358.6 822.7 359.5C818.6 360.3 815.8 362.2 814.6 366.3C813.5 370 813.1 372.3 809.7 374.4C807.6 375.7 805.2 376.6 802.9 377.6C798.9 379.3 795.2 381.2 792.9 385C792 386.6 794.6 388.1 795.6 386.5Z" fill="#111111"/>
<path d="M1246.3 845.3C1243.9 837.9 1251.5 830.3 1258.7 834.8C1266.6 839.7 1262.2 850.9 1253.4 850.7C1251.5 850.6 1251.5 853.6 1253.4 853.7C1264.6 854.1 1270.5 839.8 1261.1 832.9C1251.9 826.1 1240.1 835.7 1243.4 846.2C1244 848 1246.9 847.2 1246.3 845.3Z" fill="#111111"/>
<path d="M775.2 944C772.4 938.8 775.4 931.2 782.1 932.2C784.8 932.6 787.4 934.6 787.4 937.6C787.4 940.5 785.1 943.4 782.1 943.5C780.2 943.6 780.2 946.6 782.1 946.5C791.5 946.1 793.2 932.8 784.4 929.7C774.7 926.4 768.3 937.4 772.6 945.5C773.6 947.2 776.2 945.7 775.2 944Z" fill="#111111"/>
<path d="M1200.2 356.9C1197.3 353.7 1201.5 349.2 1205.1 351.3C1209.6 354 1206.9 359.5 1202.7 360.6C1200.8 361.1 1201.6 364 1203.5 363.5C1210.8 361.7 1213.3 351.4 1205.5 348.2C1198.9 345.5 1193.3 353.8 1198 359C1199.4 360.5 1201.5 358.4 1200.2 356.9Z" fill="#111111"/>
<path d="M171.9 459C166.1 456 169.6 446.8 176.1 448.7C183.7 450.9 181.1 460.7 174.4 462.1C172.5 462.5 173.3 465.4 175.2 465C185.2 462.8 187.1 448 176.1 445.6C166.6 443.5 161.8 457.1 170.3 461.5C172.1 462.5 173.6 459.9 171.9 459Z" fill="#1E1E1E"/>
<path d="M921.3 1035.8C921.7 1048.8 922 1061.8 922.4 1074.8C881.1 1087 860.8 1095 861.5 1098.8C862.4 1103.6 895.5 1102 960.8 1094C959.4 1071.8 958 1049.5 956.5 1027.3C944.8 1030.1 933.1 1032.9 921.3 1035.8Z" fill="black" stroke="black" stroke-width="2" stroke-miterlimit="10"/>
<path d="M1052 779.5C1046 781.3 1047.3 782 1014.9 806.9C980.6 833.2 963.5 846.4 951.6 853.1C944.7 857 939.1 859.8 932.2 866.2C920.8 876.9 915 889.1 910.5 901C896.5 938.1 894.4 973.6 894 989.4C893.6 1004 893.9 1024.6 897.4 1049.3C908.2 1051.9 917.2 1052.6 923.6 1052.7C934.7 1052.9 950.5 1053.1 966.9 1044.7C971.7 1042.2 975.4 1039.6 977.7 1037.9C974.8 1020.8 972.6 999.3 973.7 974.6C974.6 954.7 977.3 937.2 980.5 922.7C985.8 918.7 993.9 913 1004.4 907.3C1016.5 900.8 1028.6 896 1062 886.2C1102 874.5 1103.4 875.8 1109.3 870.8C1124.6 858 1135.6 832.2 1127 809.8C1115.8 780.3 1076.4 772.4 1052 779.5Z" fill="white"/>
<path d="M1036.6 789.6C1018.1 802.5 999.7 815.5 981.2 828.4C964.8 839.9 947.2 850.7 932.2 864.2C917.8 877.1 909.8 893.2 904.6 911.6C898.9 932 895.2 953.1 893.3 974.2C891.1 998.5 891.6 1022.9 894.4 1047.1C894.6 1049 897.6 1049 897.4 1047.1C892.5 1005.7 894.9 963.6 904.7 923.2C909.4 903.7 915.6 884.9 930.1 870.4C944.1 856.4 961.7 845.8 977.8 834.5C997.9 820.4 1018 806.3 1038.1 792.2C1039.7 791.1 1038.2 788.5 1036.6 789.6Z" fill="black"/>
<path d="M1093.3 874.4C1071.3 880.7 1049.6 887.7 1028.2 895.7C1018.8 899.2 1009.2 902.7 1000 906.8C992.4 910.2 985.3 914.5 980.9 921.8C979.9 923.5 982.5 925 983.5 923.3C988.3 915.2 996.9 911.2 1005.2 907.8C1014.8 903.9 1024.5 900.2 1034.3 896.6C1054 889.4 1073.9 883 1094 877.3C1095.9 876.8 1095.1 873.9 1093.3 874.4Z" fill="black"/>
<path d="M982.2 906.8C971.8 949.3 969.9 993.5 976.6 1036.7C976.9 1038.6 979.8 1037.8 979.5 1035.9C972.9 993.2 974.8 949.5 985.1 907.6C985.5 905.7 982.6 904.9 982.2 906.8Z" fill="black"/>
<path d="M895.7 1047C896.2 1052.6 904.9 1051.7 908.7 1052.1C917.9 1053 927.1 1053.7 936.4 1053.2C951.4 1052.4 966.1 1048.2 977.9 1038.6C979.4 1037.4 977.3 1035.3 975.8 1036.5C965.7 1044.7 953.2 1048.7 940.4 1049.9C933.8 1050.5 927.2 1050.5 920.6 1050.1C918.2 1050 898.9 1049.5 898.7 1047C898.5 1045.1 895.5 1045.1 895.7 1047Z" fill="black"/>
<path opacity="0.11" d="M1092.4 840.7C1078.6 833.7 1062.8 851.6 1023.8 869.4C991.9 884 984 880.4 971.5 888C949.5 901.3 930 939.2 944 1049.3C947.1 1049.3 950.7 1049 954.7 1048.2C965.2 1046 972.7 1041 977.2 1037.5C973.7 1015.6 971.6 988 975 956.5C976.4 943.2 978.6 931 981.2 920C990.7 914.5 1005.5 906.6 1024.5 899.2C1070.6 881.1 1099.2 882.2 1103.8 866C1106.2 856.9 1100.6 844.8 1092.4 840.7Z" fill="#666666"/>
<path opacity="0.12" d="M1082.3 877.8C1081.8 875.1 1049.4 876.5 1015.4 887.9C993.7 895.1 981.9 899.1 971.6 910.4C955.2 928.2 954.3 951.1 953 982.9C952.4 998 952.8 1019.8 958.1 1045.9C964.7 1043.8 971.2 1041.8 977.8 1039.7C975.3 1021.1 973.7 998.7 975 973.4C976 954.5 978.3 937.6 981.2 922.8C984.1 919.7 988.5 915.3 994.7 911C1008.2 901.5 1020.1 899.1 1034.1 895.3C1052.2 890.2 1082.8 880.4 1082.3 877.8Z" fill="#666666"/>
<path d="M1250 967.7C1271.8 960.6 1290.3 956.6 1303.8 954.2C1323.1 950.8 1327.6 951.5 1331.2 954.2C1337.4 958.8 1336.1 965.6 1338.4 1008C1339.2 1021.9 1339.6 1025.4 1336.8 1029.7C1327.3 1044.8 1295.7 1044.1 1293.3 1037.5C1292.4 1034.9 1295.4 1030.1 1310.4 1020.4C1309.9 1010.9 1309.4 1001.4 1308.8 991.9C1291.7 996 1274.6 1000.2 1257.6 1004.3C1255.2 992.2 1252.6 980 1250 967.7Z" fill="black" stroke="black" stroke-width="2" stroke-miterlimit="10"/>
<path d="M1075.3 795.5C1068.7 811 1073.4 827.6 1075.6 835.4C1078.1 844.4 1080.5 845.6 1084.5 857.7C1088.8 870.7 1090.1 880.1 1091.9 891.4C1094.5 907.9 1097.5 926.7 1102.2 945.5C1108 968.7 1111.2 980.6 1120.8 993.5C1125 999.2 1134.9 1012 1152.3 1018.8C1155.6 1020.1 1160 1021.5 1170.9 1022.9C1182.9 1024.5 1201.5 1026.9 1226.1 1023.9C1247.1 1021.4 1264.6 1015.8 1277.7 1010.5C1280.3 1000.9 1280.2 992.9 1279.8 987.8C1279.2 981.4 1278.2 969.5 1269.5 959.4C1267 956.5 1263.3 952.3 1257.1 950.1C1250.3 947.8 1244.2 949.3 1233.4 952.2C1220.9 955.5 1216.3 959.1 1208.1 957.4C1204.6 956.7 1202 955.3 1200.4 954.3C1198 950.6 1194.7 945 1191.6 937.8C1183.5 919 1182.9 903.9 1181.8 887.3C1179.3 849.9 1178 831.2 1172 810.5C1165.7 788.8 1163.9 777.9 1154.5 771.3C1144.8 764.5 1133.8 765 1127 765.3C1110.3 766 1084.5 774 1075.3 795.5Z" fill="white"/>
<path d="M1159.3 778.2C1175.7 812.6 1177 851.2 1180.6 888.4C1183.2 915.3 1185.5 952.2 1212.8 966.4C1214.5 967.3 1216 964.7 1214.3 963.8C1200.3 956.5 1193.3 942.1 1189.4 927.4C1185.2 911.3 1184.1 894.4 1182.7 877.8C1179.7 843.4 1177 808.3 1162 776.6C1161.1 774.9 1158.5 776.4 1159.3 778.2Z" fill="black"/>
<path d="M1078 846.7C1095.6 886.6 1091.2 932.1 1108.3 972.1C1115.1 988.1 1125.3 1003.1 1139.8 1013C1157.4 1024.9 1180.3 1027.3 1201 1027C1227.1 1026.6 1252.8 1020.6 1277 1011.1C1278.8 1010.4 1278 1007.5 1276.2 1008.2C1255.1 1016.5 1232.9 1022.2 1210.2 1023.6C1188.6 1025 1164 1023.9 1144.9 1012.7C1111.4 993 1102.5 950.7 1097.1 915.4C1093.5 891.5 1090.3 867.4 1080.4 845.1C1079.8 843.5 1077.2 845 1078 846.7Z" fill="black"/>
<path d="M1198.5 954.8C1216.6 965.4 1237.3 945 1256.4 951.2C1267 954.7 1272.2 966.1 1275.1 976.1C1278.3 986.9 1278.7 998.2 1276.5 1009.2C1276.1 1011.1 1279 1011.9 1279.4 1010C1281.4 999.6 1281.3 988.9 1278.9 978.6C1276.6 969.2 1272.6 958.5 1264.7 952.3C1257.4 946.5 1247.7 946.4 1238.9 948.1C1227.1 950.4 1211.6 959.1 1200 952.3C1198.3 951.3 1196.8 953.8 1198.5 954.8Z" fill="black"/>
<path opacity="0.11" d="M1144.5 776.9C1127.7 793.4 1161.6 829.7 1162.2 890.7C1162.7 938.4 1151.4 958.2 1166.6 974.2C1188.4 997.1 1237.7 983.9 1243.1 982.4C1251.7 980 1270.1 976.5 1271.6 967.2C1272.5 961.1 1266.1 954.2 1259.6 950.8C1239.8 940.3 1221.3 963.5 1203.9 955.9C1190.8 950.1 1187.9 930.9 1182.4 895.2C1177.9 865.9 1180.7 859.7 1175.4 827.5C1171.5 803.8 1166.5 774.2 1154.5 772.5C1149.7 771.7 1145.3 776 1144.5 776.9Z" fill="#666666"/>
<path opacity="0.17" d="M1171.7 816.1C1170.1 816.2 1170 835.4 1169.8 859.1C1169.3 926.4 1173.1 940.7 1181.8 953.3C1185.4 958.5 1192.2 968.1 1204.6 973.5C1232 985.6 1268.4 969.7 1268.5 959.6C1268.5 954.5 1259.2 950.7 1257.7 950.1C1248.2 946.3 1240.9 950 1221.6 953.3C1213.6 954.7 1206.8 955.4 1202 955.8C1198.4 951.3 1193.4 944.3 1189.4 934.9C1181.7 917.2 1182.3 902.8 1181.8 887.5C1180.7 849.7 1173.7 816 1171.7 816.1Z" fill="#666666"/>
<path d="M800.1 649.4C800.3 647.1 805.6 645.9 808.8 645.2C821.9 642.3 833.2 644.5 836.2 645.7C841.8 647.9 847.4 650.1 853.1 652.3C853.4 650.6 854.3 647 857.2 644.3C862.4 639.6 869.8 641.4 871.8 642C874.4 642.7 878.5 644.3 885.5 651.9C892.7 659.7 893.7 663.7 897.8 668.8C907.3 680.6 921.6 683.7 928.8 685.2C935.1 686.6 947.8 689.3 962.1 683.3C974.7 678 981.8 668.7 984.9 664.5C987.9 660.4 988.9 658 994.9 644.3C1007.1 616.4 1011 607.8 1019.5 599.2C1024.1 594.5 1029.7 589 1035.5 590.3C1042.6 591.9 1045.6 603 1046.9 607.7C1048.3 612.9 1050.1 622.8 1046 640.1C1044.6 646.1 1039.8 663.8 1025.9 683.3C1020.1 691.5 1012 702.6 997.6 712C991.3 716.1 981 722.7 966.1 724.7C952.9 726.5 942.8 723.8 934.2 721.4C924.7 718.8 908.9 713 892.2 699.3C881.5 699.8 873.3 700.5 867.6 701.2C857.9 702.3 853.8 703.2 849.4 700.7C847.9 699.8 845.7 698.2 842.6 698.4C839.7 698.6 838.7 700.2 836.2 700.7C833.4 701.3 828.8 700.8 826.2 697.4C824.1 694.7 824.3 691.3 824.4 690.2C822.7 688.7 820 685.9 818.7 681.7C817.8 678.8 817.9 676.4 817.9 673.7C818 670.5 818 668.9 818.8 667.6C821.1 663.6 827.7 663.8 828.7 663.9C825.5 661.5 822.6 660.2 820.8 659.5C814.6 657 811.3 657.8 805.6 654.7C803.3 653.3 799.9 651.4 800.1 649.4Z" fill="white"/>
<path d="M1036.4 589C1027.7 585.7 1021.2 593 1016.6 599.5C1009.7 609.2 1003.8 619.6 998.801 630.4C989.401 651 983.001 675 963.701 688.8C962.101 689.9 963.601 692.5 965.201 691.4C980.801 680.1 988.601 662.4 995.701 645.1C1000 634.7 1004.6 624.5 1010.2 614.8C1013 610.1 1015.9 605.4 1019.1 601C1022.9 595.7 1028 589.1 1035.5 591.9C1037.4 592.6 1038.2 589.7 1036.4 589Z" fill="black"/>
<path d="M861.5 654.1C857.2 655.5 855.5 650.2 856.8 647.3C857.8 645 860.4 643.8 862.6 643.1C866.8 641.9 871.6 642.7 875.5 644.6C882 647.8 885.7 654.3 889.7 660.1C896.7 670.3 906 678.5 917.3 683.5C939.8 693.4 966.1 688.1 983.4 670.7C984.8 669.3 982.6 667.2 981.3 668.6C969.5 680.6 952.8 687 936 685.4C918.8 683.8 903.2 673.8 893.2 659.9C885.8 649.4 876.5 635.3 861.2 640.4C856.9 641.8 852.7 645.6 853.4 650.5C854 654.9 858 658.4 862.4 656.9C864.1 656.4 863.3 653.5 861.5 654.1Z" fill="black"/>
<path d="M851.1 650C843.1 646 834.7 642.9 825.8 642C818 641.2 807.1 641.5 800.7 646.8C794.9 651.6 802.5 654.7 806.6 656.4C816 660.3 826.6 661.5 835.7 666.2C837.4 667.1 838.9 664.5 837.2 663.6C831.6 660.7 825.6 659.3 819.6 657.6C816.4 656.7 813.3 655.7 810.2 654.5C808.5 653.9 805.1 653.2 803.8 651.8C801.5 649.4 804.4 647.9 806.6 647.1C820.5 641.4 836.9 646.2 849.7 652.6C851.3 653.4 852.8 650.8 851.1 650Z" fill="black"/>
<path d="M835.001 664.3C830.701 661.7 825.301 661.4 821.001 664.1C817.501 666.2 814.601 670.8 816.201 674.9C818.001 679.6 825.001 680.1 829.101 680.9C835.401 682 841.401 682 847.201 679.1C848.901 678.2 847.401 675.6 845.701 676.5C839.201 679.8 832.001 678.6 825.101 677C822.401 676.4 822.301 676.5 820.601 673.6C818.401 671.8 818.501 669.9 820.701 668.1C821.301 667.6 821.901 667.2 822.501 666.7C825.901 664.6 830.101 664.9 833.501 666.9C835.101 667.9 836.601 665.3 835.001 664.3Z" fill="black"/>
<path d="M817.801 676.6C815.801 682.1 818.401 687.8 823.501 690.5C830.101 694 837.601 691.4 843.901 688.9C845.701 688.2 844.901 685.3 843.101 686C838.901 687.7 834.301 689.5 829.701 689.1C823.701 688.6 818.401 683.7 820.701 677.4C821.301 675.6 818.401 674.8 817.801 676.6Z" fill="black"/>
<path d="M822.5 689.2C820.7 694.8 825.2 699.5 830.3 701C837.8 703.1 843.8 698.9 849.2 694.2C850.7 692.9 848.5 690.8 847.1 692.1C843.7 695 840.2 698.1 835.6 698.5C831 698.9 823.4 696.1 825.4 690C826 688.2 823.1 687.4 822.5 689.2Z" fill="black"/>
<path d="M839.9 669.6C842.9 670.6 847.5 673.3 845.1 677C844.1 678.6 846.7 680.1 847.7 678.5C849.1 676.3 849 673.4 847.5 671.2C846 668.8 843.3 667.5 840.6 666.7C838.8 666.1 838 669 839.9 669.6Z" fill="black"/>
<path d="M844.201 679.8C846.301 682.1 845.401 685.7 842.401 686.6C840.601 687.1 841.301 690 843.201 689.5C848.501 688 850.001 681.6 846.401 677.6C845.001 676.3 842.901 678.4 844.201 679.8Z" fill="black"/>
<path d="M845.6 687.2C847.6 688.3 847.9 691.3 846.3 692.8C844.9 694.1 847 696.3 848.4 694.9C851.4 692 850.8 686.6 847.1 684.6C845.5 683.7 843.9 686.3 845.6 687.2Z" fill="black"/>
<path d="M849.1 652.4C851.3 653.4 853.5 654.5 855.7 655.5C857.4 656.3 859 653.7 857.2 652.9C855 651.9 852.8 650.8 850.6 649.8C848.9 649 847.4 651.6 849.1 652.4Z" fill="black"/>
<path d="M862.7 657C864.9 655.1 867.9 654.3 870.8 655C872.7 655.4 873.5 652.5 871.6 652.1C867.6 651.2 863.7 652.2 860.6 654.9C859.1 656.2 861.2 658.3 862.7 657Z" fill="black"/>
<path d="M864.4 660.6C861.6 668.9 864.9 678.1 872.4 682.6C874.1 683.6 875.6 681 873.9 680C867.5 676.2 864.9 668.3 867.3 661.4C867.9 659.5 865 658.7 864.4 660.6Z" fill="black"/>
<path d="M843.3 698.9C849.3 703.2 855.8 704.1 862.9 702.7C872.8 700.9 882.3 700 892.4 701.1C894.3 701.3 894.3 698.3 892.4 698.1C884.6 697.2 876.8 697.3 869 698.5C860.1 699.9 852.8 702 844.8 696.3C843.2 695.2 841.7 697.8 843.3 698.9Z" fill="black"/>
<path d="M889.801 699.8C904.101 706.6 917.301 715.7 932.101 721.3C945.701 726.4 960.601 727.4 974.801 723.9C989.401 720.3 1001.2 711.7 1011.5 701C1022.2 690 1031.8 677.6 1038.6 663.7C1046.6 647.5 1050.5 629.5 1048.5 611.5C1048.3 609.6 1045.3 609.6 1045.5 611.5C1047.7 631.3 1042.6 651 1032.8 668.2C1023.7 684.2 1010.8 700.2 995.701 711C980.501 721.8 960.801 725.4 942.601 721.3C924.001 717.1 908.301 705.2 891.201 697.1C889.601 696.4 888.101 699 889.801 699.8Z" fill="black"/>
<path opacity="0.16" d="M1040.4 600.6C1036.5 600.8 1037 617.4 1032.3 634.4C1025.4 659 1005.6 691.3 976.5 701.2C955.9 708.2 935.1 702.4 902 693.1C891.5 690.2 873 684.1 847.4 682.5C826.3 681.2 821.1 684.2 820.9 685.8C820.8 686.8 822.7 687.5 823.8 690.7C824.7 693.4 823.7 694.3 824.6 696C826.2 699.1 831 699.5 832.7 699.7C836.9 700.1 840.3 698.6 842.1 697.7C844 698.6 847 699.8 850.7 700.6C857.9 702.1 862 700.7 871.1 699.8C880.5 698.9 886.7 698.3 893.5 700.2C900 702 903 705 908.6 708.8C910.3 709.9 926.3 720.6 946.1 723.9C952.3 724.9 966.5 727.1 982.3 721C991.3 717.6 997 712.9 1003.5 707.6C1007.6 704.2 1025.9 688.6 1039.3 659.5C1045.2 646.8 1050 636.1 1048.7 622C1047.6 611.7 1043.7 600.4 1040.4 600.6Z" fill="#666666"/>
<path opacity="0.17" d="M849 690.2C853.8 687.8 859.4 689.8 861.6 690.6C874.1 694.9 875.3 691.9 894.2 694.7C909.8 697 910.4 701.5 930.9 708.1C950.6 714.5 966.5 719.6 982.2 714.6C1004.5 707.5 1014.8 685 1015.6 685.7C1016.4 686.3 1007.4 708.1 985.9 718.3C966.4 727.6 946.1 722.9 940.3 721.6C930.9 719.4 923.3 715.8 915 711.8C905.3 707.2 897.7 702.4 892.2 698.8C885.2 698.5 879.7 699.1 875.9 699.6C866.6 701 862.7 703.1 855.1 702C853.1 701.7 844.8 700.5 844.1 696.7C843.7 694.2 846.4 691.5 849 690.2Z" fill="#666666"/>
<path d="M1025.9 592.8C1023.2 596.1 1019.7 601.6 1017.1 645.3C1015.7 669.5 1014.3 694.9 1016.4 732.2C1017.3 747.4 1019 768.2 1022.5 792.8C1033.7 799.2 1054.1 808.7 1081.1 810.3C1124.4 812.9 1156 793.3 1166.6 786.1C1161.2 775.4 1153.8 758.8 1149.1 737.6C1143.3 711.6 1146.1 700.1 1143 668.2C1138.9 626 1136.9 604.9 1124.1 592.1C1099.6 567.5 1045.8 568.3 1025.9 592.8Z" fill="#333333"/>
<path opacity="0.22" d="M1080.4 574.8C1087.5 585.4 1096.6 601.1 1103.8 621.5C1106.9 630.4 1122.3 676.2 1111.1 735.1C1105.2 766.4 1093.7 791.6 1082.7 810.2C1090.4 810.7 1099.4 810.6 1109.3 809.3C1135.6 805.7 1155.3 794.8 1167 786.8C1163.3 780 1158.6 770.4 1154.6 758.4C1153.8 755.8 1149.9 744.1 1147.3 725.9C1145.5 713.5 1145.8 709.4 1144.6 689.2C1144.3 684.5 1143.1 665.4 1140.5 643.4C1136.7 611.2 1133.8 604.2 1129 598C1122.2 589.2 1113.6 584.5 1109.8 582.4C1097.8 576.2 1086.6 575 1080.4 574.8Z" fill="black"/>
<path opacity="0.22" d="M1140.6 649.9C1139.1 666.1 1137.1 682.8 1134.7 700C1129.2 738.8 1121.9 774.9 1113.6 808C1120.4 807.1 1129.1 805.3 1138.6 801.6C1151 796.8 1160.3 790.4 1166.6 785.4C1153.3 762 1148.7 742.4 1147 728.4C1145.3 714.3 1145.9 700.7 1142.6 667.5C1141.8 660.1 1141.1 654 1140.6 649.9Z" fill="black"/>
<path d="M985.1 473.8C983.1 478.7 983.2 484.5 983.2 496.2C983.2 504.5 983.3 516.1 987.6 529.8C990.9 540.4 994.1 551 1004 560.4C1006.8 563.1 1018.9 574.6 1036 574.6C1039.3 574.6 1042.1 574.2 1043.9 573.8C1044.7 576.8 1046.4 581 1049.6 585.3C1051.3 587.5 1053 589.2 1054.5 590.5C1056.9 590.5 1063 590.1 1069.3 586.1C1075.3 582.2 1078.1 577.1 1079.1 574.9C1077.3 573.1 1072.6 567.8 1072.3 560.1C1072.2 558 1072.5 556.2 1072.8 554.6C1076.1 550.4 1079.6 544.9 1082.6 538.2C1084.1 534.9 1085.2 531.8 1086.2 528.9C1087.7 529.3 1090.7 529.8 1093.6 528.4C1096.7 526.8 1097.8 523.7 1099.1 519.9C1101 514.3 1103.1 508 1100.5 502.4C1098 497.1 1094.1 498.3 1090.7 493.4C1085.5 486.1 1090.6 478.7 1088.5 470.7C1085.3 458.4 1067.5 453.1 1060.6 451C1032.3 442.6 993.9 452 985.1 473.8Z" fill="white"/>
<path d="M982.5 488.2C985 488.6 986.6 484.7 990.5 480.8C994.5 476.9 1001.2 472.8 1013.2 471.7C1023 470.7 1032.8 469.6 1042.6 468.6C1045.7 468.8 1052.8 469.6 1059.9 474.5C1065.6 478.5 1068.7 483.3 1070.2 485.9C1073.3 486 1076.3 486.2 1079.4 486.3C1080 490 1080.7 493.7 1081.3 497.4C1081.7 497 1087.1 492.2 1092.7 494C1097.2 495.4 1099.1 500.2 1099.9 502.4C1102.4 508.5 1100.7 513.4 1102.2 513.8C1104 514.4 1107.5 507.8 1107.9 506.9C1108.8 505.2 1111.7 499.3 1112.5 490.1C1113.1 482.6 1113.5 477.6 1110.6 472.9C1109.6 471.3 1108.6 470.3 1108.3 468.3C1107.8 464.5 1110.8 462.4 1112.5 458.8C1113.4 456.9 1113.6 455.1 1111 441.3C1108.2 426.5 1107.2 424.5 1105.7 424.1C1103.7 423.7 1101.9 426.4 1099.6 428.7C1095.6 432.8 1088.7 437.3 1075.9 439C1075.9 434.5 1075.3 430.9 1074.8 428.3C1073.9 424.3 1073.4 424.3 1070.2 414.9C1068.4 409.6 1068 407.4 1066.8 407.3C1064.8 407.1 1064.1 412.2 1059.4 414C1057.3 414.8 1056.5 414.1 1053.7 414.5C1051.2 414.8 1047.8 415.9 1043.9 419.2C1043.9 419.2 1037.9 423.3 1027.9 428.4C1016.8 434 1013.1 427.9 1001.6 433C993 436.8 987.8 443.6 985.6 446.7C983.4 449.8 977.2 458.8 977.2 471.2C977 478.3 979 487.7 982.5 488.2Z" fill="#353535"/>
<path d="M982.601 492.2C980.901 509.2 983.701 526.5 990.901 542C997.001 555.1 1006.7 568.1 1020.7 573.3C1035 578.6 1051.4 574.7 1063.3 565.7C1075.4 556.5 1083 542.8 1087.5 528.5C1088.1 526.7 1085.2 525.9 1084.6 527.7C1080.3 541.3 1073.1 554.4 1061.6 563.2C1049.7 572.2 1033 576 1019.1 569.4C1006.6 563.5 998.201 551.2 992.801 538.9C986.301 524.2 984.001 508.1 985.601 492.2C985.801 490.3 982.801 490.3 982.601 492.2Z" fill="black"/>
<path d="M1083.4 499.7C1084.8 493.6 1091.9 493.8 1095.5 497.7C1098.6 500.9 1099.3 505.6 1099.4 509.9C1099.6 517.1 1097 530.4 1086.7 527.1C1084.9 526.5 1084.1 529.4 1085.9 530C1100.5 534.7 1103.7 514.4 1101.9 504.6C1100.8 498.9 1097.1 492.8 1090.8 492C1086 491.4 1081.6 494.4 1080.5 499.1C1080.1 500.7 1083 501.5 1083.4 499.7Z" fill="black"/>
<path d="M1019.7 493.4C1017.4 498.2 1015.1 502.9 1012.9 507.7C1011.8 510.2 1010.6 512.7 1010.8 515.6C1011.3 521.5 1016.5 525.4 1021.9 526.7C1023.8 527.2 1024.6 524.3 1022.7 523.8C1016.2 522.2 1012.2 517 1015 510.4C1017.2 505.2 1019.8 500.1 1022.3 494.9C1023.1 493.2 1020.5 491.7 1019.7 493.4Z" fill="black"/>
<path d="M1005.1 506.5C1004.5 505.8 1004.1 504.9 1004 504C1003.9 503.6 1003.9 503.1 1004 502.7C1004 502.4 1004.5 501.5 1004.5 501.3C1004.3 501.3 1004.2 501.4 1004 501.4C1004.1 501.7 1004.1 502 1004.1 502.3C1004.1 502.8 1004.1 503.3 1004.1 503.8C1004 505.1 1003.7 506.3 1003.2 507.5C1004 507.3 1004.9 507.1 1005.7 506.8C1004.7 505.9 1004.3 505 1004.4 503.6C1004.6 501.7 1001.6 501.7 1001.4 503.6C1001.2 505.6 1002 507.6 1003.6 508.9C1004.5 509.7 1005.7 509.3 1006.1 508.2C1007 505.9 1007.4 503.3 1007 500.9C1006.7 499.2 1005.3 497.5 1003.5 498.3C1001.8 499 1001.1 501.4 1001.1 503.2C1001.1 505.2 1001.8 507.1 1003.2 508.6C1004.3 510.1 1006.4 507.9 1005.1 506.5Z" fill="black"/>
<path d="M1043.3 505C1043 504.2 1042.8 503.5 1042.8 502.7C1042.8 502.3 1042.9 501.9 1043 501.5C1043 501.4 1043.1 501.2 1043.1 501.1C1043.3 500.8 1043.2 500.8 1042.7 501.1C1042.7 501.2 1042.9 501.7 1042.9 501.9C1042.9 502.3 1042.9 502.7 1042.8 503.1C1042.6 504 1042.2 504.8 1041.7 505.5C1042.5 505.6 1043.3 505.7 1044.1 505.8C1042.9 504.1 1043 502.1 1044.3 500.4C1043.5 500.5 1042.7 500.6 1041.9 500.7C1042.9 501.9 1042.2 503.7 1041 504.3C1041.7 504.6 1042.5 504.9 1043.2 505.2C1042.9 504.4 1042.7 503.7 1042.6 502.8C1042.6 502.3 1042.7 501.8 1042.7 501.3C1042.7 501.1 1042.8 501 1042.8 500.8C1042.5 500.4 1042.4 500.3 1042.6 500.6C1042.9 501.4 1043.1 502 1043 502.9C1043 503.3 1042.8 503.9 1042.8 504.2C1042.8 504.4 1042.7 504.5 1042.7 504.7C1043.4 504.6 1043.5 504.4 1043.1 504C1042 502.4 1039.4 503.9 1040.5 505.5C1041.6 507.1 1044 508.5 1045.3 506.2C1046.3 504.3 1046.3 501 1045.3 499.2C1044.2 497.3 1041.6 496.7 1040.3 498.8C1039.1 500.8 1039.4 503.8 1040.2 505.9C1040.6 506.8 1041.5 507.3 1042.4 506.8C1045.5 505.2 1046.1 501.1 1043.9 498.5C1043.2 497.7 1042.1 498.1 1041.5 498.8C1039.7 501.2 1039.6 504.7 1041.3 507.2C1041.8 507.9 1043 508.3 1043.7 507.5C1045.5 505.2 1047.4 499.8 1043.8 498.1C1042.2 497.4 1040.8 498.4 1040.3 499.9C1039.6 501.8 1039.6 503.9 1040.4 505.7C1041.2 507.5 1044.1 506.8 1043.3 505Z" fill="black"/>
<path d="M1011.3 488.2C1006.1 484.8 999.3 486.4 996 491.5C995 493.1 997.6 494.6 998.6 493C1001 489.2 1006 488.3 1009.8 490.7C1011.4 491.8 1012.9 489.2 1011.3 488.2Z" fill="black"/>
<path d="M1038.9 489C1043.5 485.1 1050.6 486.3 1052.7 492.2C1053.3 494 1056.2 493.2 1055.6 491.4C1052.7 483.3 1043.1 481.4 1036.8 486.9C1035.4 488.1 1037.5 490.2 1038.9 489Z" fill="black"/>
<path d="M1042.6 574.9C1044.2 580.8 1047.3 586.1 1051.8 590.3C1053.2 591.6 1055.3 589.5 1053.9 588.2C1049.8 584.3 1046.9 579.6 1045.5 574.1C1044.9 572.2 1042 573 1042.6 574.9Z" fill="black"/>
<path d="M1070.2 556.4C1071.1 563.1 1073.4 569.2 1077.3 574.8C1078.4 576.4 1081 574.9 1079.9 573.3C1076.3 568.2 1074 562.6 1073.2 556.4C1073 554.6 1070 554.5 1070.2 556.4Z" fill="black"/>
<path d="M1052 590.8C1062.8 594.5 1075.2 585.8 1079.2 575.9C1079.9 574.1 1077 573.3 1076.3 575.1C1072.9 583.5 1061.8 591 1052.8 587.9C1051 587.3 1050.2 590.2 1052 590.8Z" fill="black"/>
<path d="M1044.4 576.5C1051.6 575.3 1058 571.9 1063.1 566.7C1064.4 565.3 1062.3 563.2 1061 564.6C1056.2 569.5 1050.3 572.5 1043.6 573.7C1041.7 574 1042.5 576.8 1044.4 576.5Z" fill="black"/>
<path d="M1046.1 578.5C1054.5 576.1 1064 569.5 1067.8 561.5C1068.6 559.8 1066 558.2 1065.2 560C1061.7 567.3 1053 573.5 1045.2 575.7C1043.4 576.2 1044.2 579 1046.1 578.5Z" fill="black"/>
<path d="M983.1 480.8C977.4 474.1 979.7 462.1 982.5 454.5C985.9 445.2 992.6 438.2 1002.3 435.5C1010.8 433.1 1019.9 433.4 1028.2 430.2C1037.4 426.6 1044.1 416.7 1054.7 417.4C1056.6 417.5 1056.6 414.5 1054.7 414.4C1042.6 413.6 1035.2 425.2 1024.3 428.3C1013.8 431.4 1002.1 430.3 992.6 436.4C985.1 441.2 980.4 449.3 978.3 457.8C976.2 465.9 975.1 476.2 980.9 482.9C982.2 484.4 984.4 482.3 983.1 480.8Z" fill="#383838"/>
<path d="M1015.1 469.5C1014.3 462.2 1015.9 455 1020.2 449C1025 442.3 1032.3 439.3 1039.5 435.9C1045.5 433.1 1051 429.6 1055.3 424.5C1059.5 419.7 1061.6 412.6 1066.9 408.9C1066.2 408.7 1065.5 408.5 1064.8 408.4C1069.8 420.1 1079.8 434.4 1070.8 446.8C1069.7 448.4 1072.3 449.9 1073.4 448.3C1083.1 434.9 1072.8 419.6 1067.4 406.9C1067.1 406.2 1066 405.9 1065.3 406.4C1059.5 410.3 1057.5 417.3 1053 422.4C1047.1 429.3 1039.4 432.4 1031.5 436.2C1018.5 442.5 1010.2 454.7 1011.9 469.5C1012.3 471.4 1015.4 471.4 1015.1 469.5Z" fill="#383838"/>
<path d="M1043.4 468.1C1049.8 456.2 1060.3 446.9 1073.1 442.4C1079.1 440.3 1085.4 439.1 1091.1 436.2C1096.6 433.5 1101.3 429.7 1105.4 425.2C1104.6 425.1 1103.8 425 1103 424.9C1106.7 432.8 1110.2 441.7 1110.9 450.4C1111.6 459.8 1106.4 467 1100.7 473.9C1099.5 475.4 1101.6 477.5 1102.8 476C1108.5 469 1114.1 461.6 1113.9 452.2C1113.7 442.3 1109.6 432.2 1105.5 423.4C1105.1 422.5 1103.8 422.4 1103.1 423.1C1097.9 428.7 1091.7 433.1 1084.5 435.7C1078.4 437.9 1072 439.1 1066.1 442C1055.2 447.3 1046.3 456 1040.6 466.6C1039.9 468.3 1042.5 469.8 1043.4 468.1Z" fill="#383838"/>
<path d="M1106.4 468.7C1113.6 482.7 1112.3 499.3 1103.1 512C1102 513.6 1104.6 515.1 1105.7 513.5C1115.6 499.9 1116.7 482.1 1109 467.2C1108.1 465.5 1105.5 467 1106.4 468.7Z" fill="#383838"/>
<path opacity="0.14" d="M1069.2 484.9C1069.5 489.8 1069.7 496.9 1069.2 505.4C1068.2 520.6 1067.4 533.7 1060.7 546C1052.3 561.3 1037.9 569.3 1028.3 573.3C1032.9 573.6 1040.3 573.4 1048.8 570.6C1055.8 568.3 1061.1 565 1064.5 562.4C1066.4 569.9 1068.4 577.4 1070.3 584.9C1073.3 581.3 1076.2 577.6 1079.2 574C1076.6 568.8 1074 563.5 1071.4 558.3C1073.5 554.9 1075.5 551.3 1077.5 547.4C1081.1 540.6 1084 534.1 1086.4 527.9C1087.7 528.4 1091.5 529.7 1094.9 527.9C1098.7 525.9 1099.6 521.4 1100.4 517.3C1101.2 513 1103.4 501.5 1096.6 496.5C1093.8 494.4 1088.9 493 1085 495.1C1082.9 496.3 1081.8 498.1 1081.2 499.2C1080.7 495.1 1080.3 491 1079.8 486.9C1076.3 486.3 1072.7 485.6 1069.2 484.9Z" fill="#666666"/>
<path opacity="0.2" d="M1046.3 467.9C1051.9 461.8 1058.6 453.1 1064.4 441.6C1068.5 433.4 1071.2 425.8 1072.9 419.4C1077.4 427.5 1077 434 1076.7 436.8C1075 449.6 1063.4 457.6 1056.9 462.1C1052.8 464.9 1049 466.7 1046.3 467.9Z" fill="black"/>
<path opacity="0.16" d="M1066.8 479.1C1072.5 477.1 1079.2 474.2 1086.3 469.9C1099.2 462 1107.9 452.6 1113.3 445.7C1114 449.9 1114.7 458.2 1110.2 465.8C1103 478.2 1085.3 484.2 1066.8 479.1Z" fill="black"/>
<path opacity="0.22" d="M1001.3 473.7C1001.1 469.5 1001.4 463.5 1003.3 456.6C1007.8 440.8 1019 429 1020.7 430C1022.1 430.8 1018.7 440.2 1001.3 473.7Z" fill="black"/>
<path d="M1006.2 538.1C1021.1 538.8 1035.6 535.8 1049 529.2C1050.3 528.6 1049.2 526.6 1047.9 527.3C1034.9 533.7 1020.7 536.6 1006.3 535.9C1004.7 535.8 1004.8 538 1006.2 538.1Z" fill="black"/>
<path d="M1007.7 538.5C1009.7 542.1 1011.1 546 1011.9 550C1012.2 551.4 1014.3 550.8 1014.1 549.4C1013.3 545.2 1011.8 541.1 1009.7 537.3C1009 536.1 1007 537.3 1007.7 538.5Z" fill="black"/>
<path d="M1012.1 550.1C1018.1 555.9 1027.8 553 1034.2 549.3C1041.9 545 1047.5 537.8 1049.4 529.2C1049.7 527.8 1047.5 527.2 1047.2 528.6C1045.6 535.7 1041.5 541.7 1035.5 545.9C1029.8 549.8 1019.5 554.2 1013.7 548.5C1012.7 547.5 1011.1 549.1 1012.1 550.1Z" fill="black"/>
<path d="M1010.7 542.6C1017.5 544.4 1025.3 542.4 1031.8 540.4C1038.1 538.5 1043.9 535.4 1048.3 530.4C1049.3 529.3 1047.7 527.7 1046.7 528.8C1042.5 533.5 1037.2 536.4 1031.2 538.2C1025.1 540 1017.6 542.1 1011.3 540.4C1009.9 540.1 1009.3 542.3 1010.7 542.6Z" fill="black"/>
<path d="M1011.7 543.7C1012.5 545.6 1013.3 547.5 1014.1 549.4C1014.6 550.6 1016.6 549.7 1016.2 548.5C1015.5 546.7 1015 545 1014.6 543.1C1014.1 543.6 1013.7 544 1013.2 544.5C1015.6 544.9 1018 545.1 1020.5 545.1C1021.7 545.1 1022.1 543.1 1020.8 542.9C1018.5 542.5 1016.7 542.6 1014.4 543.3C1013.7 543.5 1013.3 544.3 1013.7 545C1014.3 545.9 1015 546.9 1015.6 547.8C1016.4 549 1018.2 548 1017.5 546.7C1017.2 545.8 1016.9 544.9 1016.6 544.1C1015.9 544.4 1015.2 544.7 1014.5 545C1015.5 546.3 1015.9 547.7 1015.5 549.2C1016.2 549 1016.9 548.8 1017.6 548.6C1016.2 546.3 1015 549 1014.7 549.7C1014.4 550.6 1015.6 551.6 1016.4 551C1024.6 544.8 1034.2 541.7 1043.9 538.7C1045.3 538.3 1044.7 536.1 1043.3 536.5C1033.4 539.5 1023.6 542.7 1015.3 549C1015.9 549.4 1016.4 549.8 1017 550.3C1017.4 549.4 1018.6 549.2 1018.8 547.8C1019 546.6 1018.5 544.8 1017.2 544.4C1013.6 543.2 1014.9 548.3 1015.8 549.7C1016.4 550.7 1017.8 550.2 1017.9 549.1C1018.1 547 1017.7 545.5 1016.6 543.8C1015.9 542.8 1014.2 543.4 1014.5 544.7C1014.9 546.4 1014.9 546.3 1015.6 547.9C1016.2 547.5 1016.9 547.1 1017.5 546.8C1016.9 545.9 1016.2 544.9 1015.6 544C1015.4 544.6 1015.2 545.1 1014.9 545.7C1016.6 545 1018.3 544.9 1020.1 545.3C1020.2 544.6 1020.3 543.8 1020.4 543.1C1018.1 543.1 1016.1 543 1013.7 542.6C1012.8 542.4 1012.1 543.1 1012.3 544C1012.7 545.9 1013.2 547.6 1013.9 549.4C1014.6 549.1 1015.3 548.8 1016 548.5C1015.2 546.6 1014.4 544.7 1013.6 542.8C1013.1 541.2 1011.1 542.4 1011.7 543.7Z" fill="black"/>
<path d="M1018.1 547.3C1021.6 545.2 1025.2 543.6 1029.1 542.2C1028.8 541.5 1028.5 540.8 1028.2 540.1C1024.7 541.7 1021.2 543.3 1017.8 544.8C1016.7 545.3 1017.5 547.3 1018.7 546.9C1028.1 543.2 1037.4 539.4 1045.9 533.8C1045.3 533.4 1044.8 533 1044.2 532.5C1042.9 536 1037.1 536.4 1034.1 537.5C1031.6 538.4 1029.2 539.6 1026.7 540.5C1023.2 541.7 1019.1 541.5 1016.4 544.5C1015.4 545.6 1017 547.2 1018 546.1C1020.2 543.6 1024.3 543.7 1027.3 542.7C1030.3 541.7 1033.2 540.2 1036.3 539.2C1040.5 537.9 1044.7 537.8 1046.4 533.2C1046.7 532.3 1045.5 531.4 1044.7 531.9C1036.4 537.3 1027.2 541.1 1018 544.7C1018.3 545.4 1018.6 546.1 1018.9 546.8C1022.4 545.2 1025.9 543.6 1029.3 542.1C1030.5 541.6 1029.6 539.6 1028.4 540C1024.4 541.4 1020.6 543.2 1016.9 545.3C1015.7 546.1 1016.9 548.1 1018.1 547.3Z" fill="black"/>
<path d="M1045.1 536.3C1045.1 536.2 1045 536.1 1045 536C1045 535.9 1045 536 1045 536.2C1044.9 536.3 1044.7 536.5 1044.6 536.6H1044.7C1044.4 536.6 1044.1 536.7 1043.8 536.7C1043.3 536.6 1043.3 535.7 1043.2 536.3C1043.2 536.5 1043.2 536.6 1043.3 536.8C1043.4 537.2 1043.6 537.4 1044 537.7C1044.5 538.1 1045.3 537.8 1045.5 537.3C1045.8 536.7 1045.6 536.1 1045.1 535.8C1045.1 535.8 1045 535.8 1045 535.7C1045.1 535.8 1045.3 536 1045.4 536.1C1045.5 536.4 1045.5 536.4 1045.5 536.2C1045.5 536.1 1045.5 536 1045.5 536C1045.5 535.7 1045.4 535.4 1045.3 535.2C1045 534.8 1044.6 534.5 1044.1 534.5C1042.8 534.5 1042.6 536 1043 536.9C1043.2 537.5 1043.7 537.9 1044.4 537.7C1044.9 537.5 1045.4 536.8 1045.1 536.3Z" fill="black"/>
<path d="M1045.3 527.2C1047.2 528 1048.8 529.3 1049.9 531.1C1050.6 532.3 1052.6 531.2 1051.8 530C1050.4 527.7 1048.4 526 1045.9 525.1C1044.5 524.5 1043.9 526.7 1045.3 527.2Z" fill="black"/>
<path d="M1018 551.7C1025.9 546.1 1034.6 542.2 1044 540.1C1045.4 539.8 1044.8 537.6 1043.4 537.9C1033.7 540 1024.9 544 1016.8 549.7C1015.7 550.6 1016.8 552.6 1018 551.7Z" fill="black"/>
<path d="M1016 549.9C1025.8 549.4 1034.9 546.4 1043 540.9C1044.2 540.1 1043.1 538.1 1041.9 539C1034.1 544.3 1025.4 547.3 1016 547.7C1014.5 547.8 1014.5 550 1016 549.9Z" fill="black"/>
<path d="M1025.1 547.4C1030.6 546.2 1035.7 544.1 1040.5 541.1C1041.7 540.3 1040.6 538.4 1039.4 539.2C1034.8 542.1 1029.9 544.1 1024.6 545.3C1023.1 545.5 1023.7 547.7 1025.1 547.4Z" fill="black"/>
<path d="M1018.2 551.3C1026.2 551.1 1033.6 548.8 1040.2 544.3C1041.4 543.5 1040.3 541.5 1039.1 542.4C1032.8 546.7 1025.8 548.9 1018.2 549.1C1016.8 549.1 1016.8 551.4 1018.2 551.3Z" fill="black"/>
<path d="M1018.2 551.1C1018.1 552.8 1019.7 553 1021 552.8C1024 552.4 1026.9 551.7 1029.8 551C1031.2 550.6 1030.6 548.5 1029.2 548.8C1027.7 549.2 1026.2 549.5 1024.6 549.8C1023.9 549.9 1020.5 550.1 1020.4 551C1020.6 549.7 1018.3 549.7 1018.2 551.1Z" fill="black"/>
<path d="M1037.3 562.8C1038.3 560 1047.3 560.6 1055.1 561.6C1055.1 560.1 1055.4 557.9 1056.3 555.5C1057 553.6 1058.1 551.7 1062.1 547.3C1066.4 542.6 1068.6 540.3 1071.4 538.6C1073.5 537.3 1077 535.6 1081.9 534.8C1083.9 535.5 1086 536.2 1088 536.8C1088.6 534.9 1089.8 531.3 1092.1 524.3C1093.6 519.6 1094.5 517.2 1096.5 516.4C1098.5 515.7 1101.2 516.4 1102.6 518.1C1104.6 520.6 1102.8 524.2 1101.7 530.3C1101.1 533.8 1101.6 533.2 1101.4 546.3C1101.2 559.7 1100.7 559.6 1100.8 565.2C1100.9 570.4 1101.6 577.8 1104 586.7C1106.2 585.7 1109.7 584.6 1113.9 584.7C1123.7 584.8 1130.6 591.2 1135.7 596.1C1145.7 605.6 1150 616.1 1152.9 623.5C1158.5 637.8 1159.2 649.7 1159.3 654.9C1159.4 663 1159.6 670.6 1155.5 679.4C1154.2 682.2 1150.6 689.7 1142.4 695.4C1139 697.8 1132.6 702.2 1124.3 701.5C1119.5 701.1 1115.2 699.1 1110.6 695.4C1095.2 682.9 1088.1 660.2 1085.9 652.3C1081.7 637.9 1077.1 617 1076.3 590.9C1074.1 590.8 1071.5 590.3 1068.7 589.2C1058.4 584.9 1054.4 574.6 1053.6 572C1051.5 572.1 1044 572 1039.3 566.8C1038.3 565.6 1036.9 564.1 1037.3 562.8Z" fill="white"/>
<path d="M1051.2 569.8C1045.9 569.4 1039.8 567.4 1038.4 561.6C1038.1 562.2 1037.7 562.8 1037.4 563.4C1045.1 561.8 1052.8 564.1 1060.5 563C1062.4 562.7 1061.6 559.8 1059.7 560.1C1052 561.2 1044.3 558.9 1036.6 560.5C1035.8 560.7 1035.4 561.6 1035.6 562.3C1037.3 569.5 1044.6 572.2 1051.3 572.7C1053.2 572.9 1053.2 569.9 1051.2 569.8Z" fill="black"/>
<path d="M1056.9 559.1C1055.7 552 1066.6 552.4 1070.7 553.5C1072.6 554 1073.4 551.1 1071.5 550.6C1064.8 548.8 1052.4 550.1 1054 559.8C1054.3 561.8 1057.2 561 1056.9 559.1Z" fill="black"/>
<path d="M1061.2 552.2C1062.1 548.7 1064 545.5 1067.4 543.9C1071.4 542.1 1075.4 543.9 1079.1 545.5C1080.8 546.3 1082.4 543.7 1080.6 542.9C1076 540.8 1071.1 538.8 1066.2 541.1C1062 543 1059.4 547 1058.3 551.4C1057.9 553.3 1060.8 554.1 1061.2 552.2Z" fill="black"/>
<path d="M1071.7 540.2C1071.5 540 1074.9 537.2 1075.4 536.9C1076.8 536.2 1078.4 535.8 1080 535.8C1083.9 535.8 1087.4 537.7 1090.5 539.7C1092.1 540.7 1093.6 538.2 1092 537.1C1087 533.9 1080.9 531.4 1075 533.8C1072.5 534.8 1066.5 539.3 1069.5 542.4C1070.9 543.7 1073 541.6 1071.7 540.2Z" fill="black"/>
<path d="M1101.4 565.5C1102.6 557 1103 548.6 1102.4 540C1102.1 535.1 1102.6 531.3 1103.8 526.5C1104.4 524 1104.9 521.4 1104.2 518.9C1103.1 515.5 1099.3 512.7 1095.7 514.5C1093.4 515.7 1092.8 518.4 1092 520.7C1090.5 525 1089.1 529.4 1087.7 533.7C1087.1 535.5 1090 536.3 1090.6 534.5C1091.4 532 1092.2 529.5 1093.1 527.1C1093.6 525.6 1094.4 520.6 1095.6 519.7C1100.6 519.1 1102.6 520.5 1101.4 524.1C1101.1 525.3 1100.8 526.4 1100.4 527.6C1099.9 529.5 1099.4 531.3 1099.2 533.2C1098.8 538 1099.7 543 1099.7 547.9C1099.7 553.6 1099.3 559.2 1098.5 564.8C1098.3 566.6 1101.2 567.4 1101.4 565.5Z" fill="black"/>
<path d="M1049.6 573C1054.8 573.4 1056.1 578.8 1058.5 582.4C1059.7 584.3 1061.2 586 1063 587.4C1066.5 590.2 1070.6 591.7 1075.1 592.1C1077 592.3 1077 589.3 1075.1 589.1C1067.5 588.4 1062.7 584 1059.2 577.6C1057 573.6 1054.4 570.4 1049.6 570.1C1047.6 569.9 1047.7 572.9 1049.6 573Z" fill="black"/>
<path d="M1074.6 590.8C1077.7 601.5 1078 612.5 1078.9 623.5C1079.7 632.8 1081.2 642.1 1083.8 651C1088.9 668.2 1097.7 684.1 1110.4 696.9C1111.8 698.3 1113.9 696.1 1112.5 694.8C1099.4 681.6 1090.5 665 1085.8 647.1C1080.8 628.3 1082.9 608.6 1077.5 590C1076.9 588.2 1074 589 1074.6 590.8Z" fill="black"/>
<path d="M1098.5 564.3C1100 581 1104.9 597.3 1113.1 611.9C1121.1 626.1 1133.4 638.4 1136.2 655C1136.5 656.9 1139.4 656.1 1139.1 654.2C1136.6 639.1 1126.3 627.6 1118.4 615C1108.9 599.7 1103.2 582.3 1101.5 564.4C1101.3 562.4 1098.3 562.4 1098.5 564.3Z" fill="black"/>
<path d="M1105.4 587.5C1120.3 582.7 1135 594.7 1142.8 606.3C1151 618.5 1154.7 633.5 1156.4 648C1158 662.2 1156.9 677.7 1147.4 689.1C1138.6 699.7 1122.3 703.9 1111.2 694.3C1109.7 693 1107.6 695.2 1109.1 696.4C1119.6 705.5 1135.1 704.2 1145.4 695.4C1158 684.7 1161.1 667.3 1159.8 651.6C1158.4 634.5 1154.1 616.2 1143.7 602.2C1135 590.6 1119.8 579.7 1104.7 584.5C1102.8 585.2 1103.5 588.1 1105.4 587.5Z" fill="black"/>
<path opacity="0.15" d="M1098.9 519.9C1093.6 521.9 1094 535.5 1094.4 545.3C1095.8 574.4 1096.5 589 1102.2 611.4C1110.4 643.3 1117.9 651.6 1122 655.5C1127.9 661.1 1139.2 669.2 1144 666C1151.6 660.9 1139.5 630.5 1136.5 623.1C1126.4 597.9 1124.2 589.5 1116.7 586.9C1112.2 585.4 1107.8 586 1104.7 586.9C1100.4 577.7 1099.7 570.3 1099.8 565.2C1099.9 560.9 1100.6 560.9 1100.9 554.4C1101.5 542.6 1099.4 541.9 1100.5 534.2C1101.6 526.7 1104.5 522.2 1102.4 520.4C1101.7 519.4 1100 519.5 1098.9 519.9Z" fill="#666666"/>
<path opacity="0.15" d="M1107.5 592C1114.6 598.9 1119.5 605.5 1122.8 610.7C1130.9 623.2 1134.3 634.4 1135.5 638.7C1137.2 644.8 1138 650.1 1138.5 654C1136.8 648.8 1133.6 641 1128 632.3C1123.5 625.3 1120.6 622.9 1116.8 616.6C1113.7 611.4 1109.8 603.4 1107.5 592Z" fill="#666666"/>
</svg>
